PathFileType	4	(X/Y/Z)	C:\Users\dbl\Desktop\20210112\20210112\bx_n_0_1802.trc
DataRate	CameraRate	NumFrames	NumMarkers	Units	OrigDataRate	OrigDataStartFrame	OrigNumFrames
50.00	50.00	       8	43	mm	50.00	54	       425
Frame#	Time	Top.Head			R.Acromium			L.Acromium			Sternum			R.ASIS			L.ASIS			V.Sacral			R.Thigh.Upper			R.Thigh.Front			R.Thigh.Rear			R.Knee.Lat			R.Knee.Med			R.Shank.Upper			R.Shank.Front			R.Shank.Rear			R.Ankle.Lat			R.Midfoot.Lat			R.Toe.Lat			R.Toe.Tip			R.Toe.Med			R.Ankle.Med			R.Midfoot.Sup			R.Heel			L.Thigh.Upper			L.Thigh.Front			L.Thigh.Rear			L.Knee.Lat			L.Knee.Med			L.Shank.Upper			L.Shank.Front			L.Shank.Rear			L.Ankle.Lat			L.Midfoot.Lat			L.Toe.Lat			L.Toe.Tip			L.Toe.Med			L.Ankle.Med			L.Midfoot.Sup			L.Heel			origin1 front left			origin2 front right			origin 3 back right			origin 4 back leftt			
		X1	Y1	Z1	X2	Y2	Z2	X3	Y3	Z3	X4	Y4	Z4	X5	Y5	Z5	X6	Y6	Z6	X7	Y7	Z7	X8	Y8	Z8	X9	Y9	Z9	X10	Y10	Z10	X11	Y11	Z11	X12	Y12	Z12	X13	Y13	Z13	X14	Y14	Z14	X15	Y15	Z15	X16	Y16	Z16	X17	Y17	Z17	X18	Y18	Z18	X19	Y19	Z19	X20	Y20	Z20	X21	Y21	Z21	X22	Y22	Z22	X23	Y23	Z23	X24	Y24	Z24	X25	Y25	Z25	X26	Y26	Z26	X27	Y27	Z27	X28	Y28	Z28	X29	Y29	Z29	X30	Y30	Z30	X31	Y31	Z31	X32	Y32	Z32	X33	Y33	Z33	X34	Y34	Z34	X35	Y35	Z35	X36	Y36	Z36	X37	Y37	Z37	X38	Y38	Z38	X39	Y39	Z39	X40	Y40	Z40	X41	Y41	Z41	X42	Y42	Z42	X43	Y43	Z43	

54	1.060	-687.76569	120.43626	1847.88599	-679.14490	-69.74197	1537.74023	-702.82507	292.21332	1528.34131	-580.13300	108.74291	1354.37402	-573.03125	-3.25049	1053.18701	-580.43945	243.50122	1063.58228	-775.23767	98.25887	1054.39966	-639.74725	-69.36159	869.82397	-566.81055	-1.78053	800.54736	-662.77582	-60.32446	757.31976	-691.31421	-32.72192	614.34424	-681.73193	78.38172	573.55261	-702.09424	-29.89194	567.55542	-655.98169	19.69759	516.87396	-748.06708	-43.18837	489.30325	-756.21454	-15.99279	207.70259	-649.22534	-66.30086	163.13512	-608.15143	-73.58716	159.38113	-551.37183	-31.27321	165.97807	-597.23047	26.22402	165.88918	-671.75403	55.72329	155.94014	-715.80951	73.65015	214.96892	-791.03400	42.74212	176.43013	-663.37122	287.92239	872.10992	-570.41718	223.03810	790.00836	-675.30981	271.44553	742.75787	-710.12689	251.97658	642.95581	-679.75354	143.37903	576.85327	-714.50665	248.08493	576.07501	-663.88324	204.10490	534.02069	-756.08881	258.98929	502.82425	-764.53943	225.45795	206.26315	-654.13428	292.64914	156.33363	-616.87036	299.15167	158.38002	-552.92102	246.75369	166.37006	-588.48804	210.00508	173.86528	-674.26776	165.97816	157.05185	-712.56409	150.40364	216.33685	-794.16339	177.50609	185.66531	-528.15234	304.19696	146.66379	-517.46967	-72.83638	143.59976	-875.98993	-78.71833	141.52861	-882.48700	296.18695	144.77530	
55	1.080	-687.90332	120.39443	1847.90271	-679.13678	-69.78153	1537.77808	-702.75439	292.17270	1528.34143	-580.01752	108.65318	1354.40979	-572.91809	-3.31621	1053.20679	-580.46289	243.35838	1063.58374	-775.26477	98.16869	1054.39270	-639.76056	-69.47221	869.83344	-566.83234	-1.81488	800.52563	-662.72125	-60.43338	757.35211	-691.39398	-32.79652	614.34106	-681.80328	78.32913	573.56531	-702.09253	-29.91653	567.56195	-656.07227	19.65248	516.88177	-748.06891	-43.26493	489.24759	-756.21295	-15.99728	207.70468	-649.20996	-66.30206	163.16821	-608.11743	-73.62483	159.42012	-551.33624	-31.25481	165.96919	-597.23151	26.24104	165.85262	-671.69305	55.76058	156.02345	-715.81366	73.62904	214.99945	-791.01154	42.76231	176.41653	-663.41772	287.79761	872.04224	-570.40253	222.93884	790.03320	-675.32043	271.39853	742.83148	-710.14337	251.89293	642.91760	-679.77075	143.35519	576.84338	-714.46558	247.99463	575.97235	-663.87756	204.07735	534.00934	-756.10919	258.96906	502.83435	-764.54791	225.44250	206.25087	-654.14423	292.62839	156.37865	-616.86243	299.13062	158.38875	-552.92078	246.74930	166.35715	-588.47791	209.98946	173.86559	-674.27386	165.99258	157.06212	-712.58221	150.44215	216.35225	-794.14130	177.49420	185.66049	-528.15070	304.15512	146.65764	-517.45087	-72.85017	143.60477	-875.98724	-78.72105	141.52272	-882.50671	296.19971	144.77623	
56	1.100	-688.07074	120.37414	1847.90381	-679.12415	-69.82195	1537.80200	-702.67780	292.11453	1528.31177	-579.87146	108.56078	1354.47241	-572.88275	-3.41277	1053.21118	-580.46796	243.25117	1063.59863	-775.29803	98.08636	1054.37683	-639.76984	-69.58098	869.83966	-566.86017	-1.86582	800.49176	-662.68304	-60.53593	757.34473	-691.49530	-32.82442	614.31366	-681.90009	78.21321	573.53558	-702.09735	-29.93629	567.54828	-656.16144	19.59958	516.85925	-748.11426	-43.36309	489.19254	-756.21790	-15.99001	207.70798	-649.20721	-66.30355	163.16794	-608.10345	-73.69772	159.45467	-551.30121	-31.22330	165.96024	-597.22070	26.25060	165.81467	-671.66498	55.74059	156.06160	-715.83521	73.63800	215.03188	-790.98651	42.78340	176.42125	-663.45813	287.69470	872.01288	-570.41217	222.83847	790.06866	-675.33130	271.40222	742.92523	-710.18140	251.82321	642.87000	-679.76990	143.32799	576.80402	-714.42645	247.94073	575.86646	-663.89838	204.03632	533.98590	-756.13373	258.95056	502.85526	-764.56921	225.42659	206.24211	-654.12030	292.59821	156.41270	-616.86487	299.09961	158.39214	-552.88098	246.74399	166.35593	-588.47205	209.97940	173.86668	-674.28833	166.00471	157.08348	-712.59790	150.46767	216.36852	-794.12030	177.46579	185.65596	-528.15808	304.13461	146.64534	-517.43713	-72.85480	143.61839	-875.98743	-78.71799	141.52394	-882.50183	296.19391	144.77161	
57	1.120	-688.24365	120.38725	1847.89050	-679.09680	-69.87322	1537.82581	-702.59534	292.05411	1528.26392	-579.71191	108.48862	1354.56958	-572.92322	-3.53760	1053.19324	-580.46783	243.19786	1063.63403	-775.31714	98.01608	1054.37170	-639.76263	-69.67805	869.83844	-566.88501	-1.92031	800.45526	-662.67603	-60.62280	757.31177	-691.59149	-32.80420	614.26593	-682.04047	78.01936	573.43060	-702.11792	-29.96475	567.50403	-656.21350	19.54623	516.82806	-748.19080	-43.48876	489.15668	-756.22705	-15.97593	207.71349	-649.21136	-66.31031	163.14323	-608.10535	-73.77447	159.46300	-551.27399	-31.19957	165.95401	-597.19855	26.25078	165.78632	-671.69092	55.68066	156.05737	-715.86383	73.66396	215.05626	-790.96643	42.78643	176.44054	-663.48792	287.62585	872.04364	-570.45026	222.74435	790.10913	-675.34113	271.42145	743.00604	-710.21783	251.78708	642.83368	-679.75293	143.30255	576.74463	-714.40814	247.93488	575.82672	-663.93628	203.99281	533.95343	-756.15070	258.93048	502.86258	-764.58997	225.41489	206.24101	-654.07349	292.56085	156.42241	-616.87201	299.07593	158.39127	-552.81805	246.75204	166.36751	-588.46899	209.97400	173.86761	-674.29352	166.00964	157.09891	-712.59509	150.43486	216.41650	-794.10907	177.43401	185.64542	-528.16327	304.14835	146.64037	-517.43787	-72.84337	143.63316	-875.98840	-78.71584	141.52652	-882.47827	296.17484	144.76126	
58	1.140	-688.38538	120.43491	1847.87012	-679.05859	-69.93527	1537.86169	-702.51593	292.00610	1528.22253	-579.59192	108.44386	1354.68042	-572.98840	-3.67984	1053.15698	-580.46613	243.17760	1063.68896	-775.31781	97.95462	1054.37988	-639.73718	-69.76817	869.82343	-566.90588	-1.96734	800.43036	-662.69580	-60.68541	757.27710	-691.65973	-32.75874	614.22137	-682.22784	77.77688	573.26587	-702.15179	-30.00325	567.44495	-656.22510	19.49549	516.83459	-748.26422	-43.62077	489.14041	-756.23169	-15.96728	207.71402	-649.21576	-66.31228	163.10825	-608.11652	-73.81582	159.44235	-551.26520	-31.20038	165.95441	-597.18152	26.24259	165.77951	-671.74939	55.63622	156.02939	-715.88776	73.68377	215.07950	-790.95471	42.77591	176.45734	-663.49866	287.56805	872.11713	-570.51062	222.66339	790.13861	-675.35101	271.42285	743.06854	-710.24664	251.78716	642.82831	-679.74615	143.27786	576.68121	-714.41669	247.95679	575.86572	-663.96997	203.96637	533.93024	-756.15265	258.91547	502.85248	-764.60223	225.40013	206.24661	-654.02087	292.51324	156.40691	-616.87817	299.06433	158.39294	-552.76953	246.77061	166.38435	-588.46478	209.96733	173.86855	-674.28021	166.00363	157.10345	-712.57874	150.35103	216.48531	-794.10638	177.41074	185.63115	-528.15619	304.17892	146.64796	-517.45160	-72.81622	143.64526	-875.98804	-78.72100	141.52426	-882.46649	296.17075	144.76001	
59	1.160	-688.48724	120.50643	1847.84998	-679.02167	-70.00050	1537.91357	-702.44623	291.97205	1528.20679	-579.54041	108.41151	1354.76978	-573.03809	-3.82329	1053.11230	-580.44775	243.15556	1063.75085	-775.32104	97.88418	1054.39514	-639.71057	-69.85284	869.79645	-566.93335	-2.01609	800.42828	-662.72870	-60.72393	757.25427	-691.69476	-32.71347	614.19409	-682.40594	77.53870	573.11871	-702.19653	-30.04854	567.41046	-656.22241	19.44337	516.89240	-748.32159	-43.72512	489.13406	-756.22601	-15.97024	207.70213	-649.21881	-66.30245	163.07202	-608.13556	-73.80638	159.40604	-551.28491	-31.22800	165.96294	-597.19336	26.23092	165.79199	-671.79419	55.63473	155.98547	-715.91040	73.68850	215.12280	-790.94983	42.76400	176.45866	-663.50366	287.48450	872.18433	-570.58661	222.59225	790.14362	-675.37103	271.39188	743.11340	-710.27783	251.79933	642.85602	-679.78748	143.24757	576.62482	-714.45398	247.98248	575.95654	-663.98865	203.95377	533.91870	-756.14569	258.90619	502.83911	-764.60022	225.38113	206.25540	-653.98749	292.46970	156.37495	-616.88049	299.06287	158.40167	-552.75250	246.78691	166.40244	-588.46106	209.96149	173.86926	-674.25653	165.99254	157.10164	-712.57452	150.26758	216.52713	-794.10950	177.40315	185.62617	-528.14172	304.19702	146.66122	-517.46832	-72.79075	143.64844	-875.98901	-78.72532	141.52478	-882.48114	296.18716	144.77101	
60	1.180	-688.56573	120.58458	1847.83618	-678.99823	-70.05834	1537.97998	-702.38361	291.94131	1528.20862	-579.53302	108.36835	1354.81641	-573.07117	-3.95189	1053.07129	-580.41156	243.12004	1063.80872	-775.35638	97.78451	1054.42004	-639.70459	-69.93073	869.78015	-566.97797	-2.08634	800.45197	-662.76276	-60.75677	757.23700	-691.70154	-32.69430	614.18555	-682.50513	77.33321	573.03162	-702.24817	-30.10402	567.42145	-656.22852	19.38324	516.96503	-748.36780	-43.78753	489.12091	-756.21515	-15.97935	207.68437	-649.22729	-66.28220	163.03937	-608.16174	-73.76705	159.36346	-551.32703	-31.26628	165.97166	-597.23224	26.22367	165.80078	-671.78296	55.66331	155.94148	-715.93488	73.68596	215.18086	-790.95355	42.75086	176.45401	-663.52893	287.35141	872.19696	-570.66412	222.51500	790.12921	-675.41461	271.32678	743.12341	-710.31000	251.79253	642.89801	-679.89331	143.20358	576.58173	-714.51569	247.99417	576.05927	-664.00354	203.92563	533.90240	-756.14008	258.89764	502.83966	-764.59167	225.35828	206.27081	-653.99268	292.46008	156.35187	-616.87927	299.06796	158.41379	-552.75665	246.79988	166.41833	-588.46198	209.96286	173.86925	-674.24286	165.98401	157.09871	-712.60046	150.23399	216.51402	-794.12048	177.40759	185.64629	-528.13080	304.18701	146.66507	-517.48010	-72.79519	143.63213	-875.99286	-78.71822	141.53424	-882.50555	296.19836	144.77318	
61	1.200	-688.63379	120.65382	1847.83447	-678.99011	-70.10941	1538.05676	-702.32977	291.90814	1528.20081	-579.53217	108.29851	1354.83447	-573.09753	-4.05523	1053.04468	-580.38574	243.07745	1063.86401	-775.43677	97.65195	1054.46289	-639.72766	-70.01092	869.80383	-567.04333	-2.18604	800.48853	-662.80005	-60.80595	757.22241	-691.68982	-32.71778	614.19141	-682.53009	77.16271	572.98035	-702.30365	-30.16659	567.45990	-656.24689	19.31837	517.01563	-748.40643	-43.82169	489.08475	-756.20728	-15.98645	207.67227	-649.24683	-66.25548	163.01274	-608.19281	-73.73241	159.32179	-551.37018	-31.28989	165.97189	-597.26654	26.22426	165.79225	-671.70319	55.70681	155.92281	-715.94409	73.68053	215.20976	-790.96906	42.73164	176.45728	-663.58875	287.15985	872.13776	-570.72327	222.42073	790.11499	-675.48016	271.23706	743.08978	-710.33417	251.75497	642.92841	-680.04474	143.13770	576.55719	-714.58057	247.96625	576.13446	-664.03198	203.86285	533.87518	-756.14252	258.88705	502.86346	-764.60022	225.32954	206.29765	-654.03265	292.49725	156.35211	-616.87836	299.07507	158.41618	-552.77155	246.81099	166.41815	-588.46698	209.97064	173.86852	-674.24915	165.97955	157.09393	-712.64319	150.26413	216.45572	-794.13794	177.41487	185.69073	-528.13074	304.16681	146.64635	-517.48822	-72.84224	143.60060	-875.99323	-78.70086	141.53995	-882.51416	296.18921	144.75542	
